<?xml version="1.0" encoding="UTF-8"?>
<svg id="Layer_1" data-name="Layer 1" xmlns="http://www.w3.org/2000/svg" version="1.1" viewBox="0 0 800 800">
  <defs>
    <style>
      .cls-1 {
        fill: #000;
        stroke-width: 0px;
      }
    </style>
  </defs>
  <path class="cls-1" d="M771.5,325.1c-8.7-18.9-27.6-31.2-48.1-31.2h-110.4v-.8c0-9.9-5.5-18.4-13.7-22.8,17.3-19.1,27-44,27-70.7,0-58.5-47.6-106.1-106.1-106.1s-26.5,3.3-26.5,3.3l-241.8,65.1c-29.4,6.6-51.5,32.9-51.5,64.3s5.4,29.7,14.3,40.9h-1.8c-14.3,0-25.9,11.6-25.9,25.9v.8h-110.4c-20.6,0-39.4,12.2-48.1,31.2C9.9,365.9,0,414.9,0,466.8s9.9,100.9,28.5,141.7c8.7,18.9,27.6,31.2,48.1,31.2h78l-6,41.8h-2.5c-6.9,0-12.5,5.6-12.5,12.5s5.6,12.5,12.5,12.5h93.5c6.9,0,12.5-5.6,12.5-12.5s-5.6-12.5-12.5-12.5h-2.5l-6-41.8h337.6l-6,41.8h-2.5c-6.9,0-12.5,5.6-12.5,12.5s5.6,12.5,12.5,12.5h93.5c6.9,0,12.5-5.6,12.5-12.5s-5.6-12.5-12.5-12.5h-2.5l-6-41.8h78c20.6,0,39.4-12.2,48.1-31.2,18.7-40.8,28.5-89.8,28.5-141.7s-9.9-100.9-28.5-141.7ZM520.2,118.6c44.7,0,81,36.3,81,81s-10.4,46.2-28.4,61.4v-74.8c0-14.3-11.6-25.9-25.9-25.9h-53.4c-14.3,0-25.9,11.6-25.9,25.9v74.8c-18-15.3-28.4-37.4-28.4-61.4,0-44.7,36.3-81,81-81ZM492.7,213.8v-27.6c0-.5.4-.8.8-.8h53.4c.5,0,.8.4.8.8v27.6h-55.1ZM547.8,238.8v28.4h-55.1v-28.4h55.1ZM433.2,139.1c-12,17.2-19,38-19,60.5s8.8,49,24.4,67.6h-120.5c8.9-11.3,14.3-25.5,14.3-40.9,0-21.6-10.5-40.9-26.6-52.9l127.4-34.3ZM266.4,185.4c22.6,0,40.9,18.4,40.9,40.9s-18.4,40.9-40.9,40.9-40.9-18.4-40.9-40.9,18.4-40.9,40.9-40.9ZM212.1,293.1c0-.5.4-.8.8-.8h374.1c.5,0,.8.4.8.8v26.7c0,.5-.4.8-.8.8H212.9c-.5,0-.8-.4-.8-.8v-26.7h0ZM173.9,681.4l9.7-67.8c0-.4.4-.7.8-.7h16.9c.4,0,.8.3.8.7l9.7,67.8h-37.9ZM588.1,681.4l9.7-67.8c0-.4.4-.7.8-.7h16.9c.4,0,.8.3.8.7l9.7,67.8h-37.9ZM748.7,598.1c-4.6,10.1-14.5,16.6-25.3,16.6h-3.5v-201.3c0-6.9-5.6-12.5-12.5-12.5s-12.5,5.6-12.5,12.5v201.3h-53l-.6-4.5c-1.8-12.7-12.8-22.2-25.6-22.2h-16.9c-12.8,0-23.8,9.6-25.6,22.2l-.6,4.5H227.6l-.6-4.5c-1.8-12.7-12.8-22.2-25.6-22.2h-16.9c-12.8,0-23.8,9.6-25.6,22.2l-.6,4.5h-53v-201.3c0-6.9-5.6-12.5-12.5-12.5s-12.5,5.6-12.5,12.5v201.3h-3.5c-10.8,0-20.7-6.5-25.3-16.6-16.9-37-26.3-83.6-26.3-131.3s9.3-94.3,26.3-131.3c4.6-10.1,14.5-16.6,25.3-16.6h3.5v40.9c0,6.9,5.6,12.5,12.5,12.5s12.5-5.6,12.5-12.5v-40.9h81.8v.8c0,14.3,11.6,25.9,25.9,25.9h27.6v.8c0,6.9,5.6,12.5,12.5,12.5s12.5-5.6,12.5-12.5v-.8h268.9v.8c0,6.9,5.6,12.5,12.5,12.5s12.5-5.6,12.5-12.5v-.8h27.6c14.3,0,25.9-11.6,25.9-25.9v-.8h81.8v40.9c0,6.9,5.6,12.5,12.5,12.5s12.5-5.6,12.5-12.5v-40.9h3.5c10.8,0,20.7,6.5,25.3,16.6,16.9,37,26.3,83.6,26.3,131.3s-9.3,94.3-26.3,131.3Z"/>
</svg>