<?xml version="1.0" encoding="UTF-8"?>
<svg id="Drill" xmlns="http://www.w3.org/2000/svg" version="1.1" viewBox="0 0 800 800">
  <defs>
    <style>
      .cls-1 {
        fill: #000;
        stroke-width: 0px;
      }
    </style>
  </defs>
  <g id="Drill-2" data-name="Drill">
    <g>
      <path class="cls-1" d="M677.3,403.9c13.1,0,23.8-10.7,23.8-23.8s-10.7-23.8-23.8-23.8-23.8,10.7-23.8,23.8,10.7,23.8,23.8,23.8ZM677.3,375c2.8,0,5.1,2.3,5.1,5.1s-2.3,5.1-5.1,5.1-5.1-2.3-5.1-5.1,2.3-5.1,5.1-5.1Z"/>
      <path class="cls-1" d="M228.8,248.9c5.4,8.2,14.7,13.7,25.2,13.7h48.2v-7.9h21.6v21h44.5v81.5h10v56.4h-10v164.7h-12.2v18.8h91.2v-18.8h-12v-164.7h-10.2v-42h161.4c3,0,5.9,0,8.8-.2l6.6,68.8,23.8-2.3,10.3,106-38.9,38.7v55.8h172.6V190.3h-.2c.1-3.3.2-6.5.2-9.8v-9.4h-223.8s-16.9-9.5-16.9-9.5h-122.7v13.8h-82.5v21h-21.6v-7.9h-48.2c-8.2,0-15.7,3.3-21.2,8.7l-61.5,15.5c-2.1.5-3.9,1.6-5.3,3.1H30.3v18.8h141.7l56.7,14.3ZM411,578.2v-21.2h-18.8v21.2h-5.2v-146h5.2v107h18.8v-107h5.5v146h-5.5ZM406.3,413.5h-9.2v-56.4h9.2v56.4ZM623.9,419.2l-5.1.5-4.8-50.1c1.7-.2,3.4-.5,5-.8l3.4,34.9,1.5,15.4ZM732.5,416v-116.7c7.1-9.7,13.3-20.2,18.5-31.3v320h-18.5v-172ZM743.1,236.3h-88.8v18.8h82.1c-4.8,11.3-10.6,21.8-17.5,31.5h-83.5c-37.8,0-69.1-28.4-73.7-64.9h185c-1,5-2.3,9.9-3.7,14.7ZM713.7,409.4l-69.6,24.8-3.2-32.4-3.6-37.1c28.9-8,55-22.9,76.3-43.8v88.4ZM649.6,556.8h42.1v-18.8h-37.4l-8.2-84.5,67.7-24.2v158.7h-95.5l31.4-31.2ZM615.9,619.6v-12.9h135.1v12.9h-135.1ZM425,180.3h99l16.9,9.5h209.8c-.2,4.3-.5,8.7-1,12.9h-207.3v9.4c0,51.3,41.7,93,93,93h67.8c-29.1,29.9-69.8,47.6-116.9,47.6h-161.4v-172.5ZM387.1,194.1h19.2v144.3h-19.2v-144.3h0ZM342.6,194.1h25.7v62.8h-25.7v-62.8ZM303.1,215.1h20.8v20.8h-20.8v-20.8ZM254,207.2h29.5v36.5h-29.5c-6.3,0-11.4-5.1-11.4-11.4v-13.7c0-6.3,5.1-11.4,11.4-11.4ZM223.8,218.8v9.5l-18.8-4.7,18.8-4.7Z"/>
      <rect class="cls-1" x="440.7" y="322.2" width="71" height="18.8"/>
      <rect class="cls-1" x="440.7" y="263.8" width="71" height="18.8"/>
      <rect class="cls-1" x="440.7" y="293" width="71" height="18.8"/>
      <rect class="cls-1" x="603.5" y="236.3" width="30.6" height="18.8"/>
    </g>
  </g>
</svg>