<?xml version="1.0" encoding="UTF-8"?>
<svg id="Layer_1" data-name="Layer 1" xmlns="http://www.w3.org/2000/svg" version="1.1" viewBox="0 0 800 800">
  <defs>
    <style>
      .cls-1 {
        fill: #0f0f0f;
      }

      .cls-1, .cls-2 {
        stroke-width: 0px;
      }

      .cls-2 {
        fill: #fff;
      }
    </style>
  </defs>
  <path class="cls-1" d="M334.8,485.7c-36,0-65.2,29.2-65.2,65.2s29.2,65.2,65.2,65.2,65.2-29.2,65.2-65.2-29.2-65.2-65.2-65.2ZM334.8,594.3c-24,0-43.5-19.5-43.5-43.5s19.5-43.5,43.5-43.5,43.5,19.5,43.5,43.5-19.4,43.5-43.5,43.5Z"/>
  <path class="cls-1" d="M650.9,222.8h-75.2v-125.5c0-55.2-45-100.3-100.3-100.3H174.2c-55.4,0-100.3,45-100.3,100.5v602.1c0,55.6,45,100.5,100.3,100.5h301.3c55.4,0,100.3-45,100.3-100.3v-326.3h-.1c0-.1,75.2-.1,75.2-.1,41.6,0,75.2-33.6,75.2-75.2s-33.6-75.2-75.2-75.2ZM533.4,704.6c0,28-23.4,50.9-52.1,50.9H168.3c-28.8,0-52.1-22.8-52.1-51.1V92.6c0-28.3,23.4-51.1,52.1-51.1h313c28.7,0,52.1,22.8,52.1,50.9v127.8h-73.1c-27.1-45.7-49-76.5-135.5-76.5s-156.5,68.5-156.5,152.9,70.1,152.9,156.5,152.9,108.4-30.8,135.5-76.5h73v331.5ZM324.9,373.4h100.3c-12.4,22.8-42.7,50.1-96.3,50.1s-129.4-56.3-129.4-125.5,56.1-125.4,125.4-125.4,77.2,19.4,100.3,50.2h0c0,.1-100.3.1-100.3.1-41.6,0-75.2,33.6-75.2,75.2s33.6,75.2,75.2,75.2ZM663.7,334.5h-351.3c-15.1,0-27.1-16-27.1-36.3s12-36.4,27.1-36.3h351.3c15.1,0,27.1,16.1,27.1,36.3s-12.1,36.3-27.1,36.3Z"/>
  <path class="cls-2" d="M334.8,485.7c-36,0-65.2,29.2-65.2,65.2s29.2,65.2,65.2,65.2,65.2-29.2,65.2-65.2-29.2-65.2-65.2-65.2ZM334.8,594.3c-24,0-43.5-19.5-43.5-43.5s19.5-43.5,43.5-43.5,43.5,19.5,43.5,43.5-19.4,43.5-43.5,43.5Z"/>
  <path class="cls-1" d="M324.9,499.1c-41.5,0-75.2,33.7-75.2,75.2s33.7,75.2,75.2,75.2,75.2-33.7,75.2-75.2-33.7-75.2-75.2-75.2ZM324.9,624.3c-27.7,0-50.2-22.5-50.2-50.2s22.5-50.2,50.2-50.2,50.2,22.5,50.2,50.2-22.4,50.2-50.2,50.2Z"/>
</svg>