<?xml version="1.0" encoding="iso-8859-1"?>
<!-- Uploaded to: SVG Repo, www.svgrepo.com, Generator: SVG Repo Mixer Tools -->
<!DOCTYPE svg PUBLIC "-//W3C//DTD SVG 1.1//EN" "http://www.w3.org/Graphics/SVG/1.1/DTD/svg11.dtd">
<svg fill="#000000" version="1.1" id="Capa_1" xmlns="http://www.w3.org/2000/svg" xmlns:xlink="http://www.w3.org/1999/xlink" 
	 width="800px" height="800px" viewBox="0 0 221.185 221.185"
	 xml:space="preserve">
<g>
	<path d="M217.687,58.979h-57.372l-12.991-21.11c-0.636-1.037-1.766-1.668-2.983-1.668H81.521c-1.22,0-2.348,0.632-2.986,1.668
		l-12.99,21.11H3.504C1.567,58.979,0,60.545,0,62.483v51.538c0,1.937,1.567,3.504,3.504,3.504H18.19v63.953
		c0,1.938,1.567,3.505,3.504,3.505h177.797c1.937,0,3.504-1.567,3.504-3.505v-63.953h14.685c1.938,0,3.505-1.567,3.505-3.504V62.483
		C221.191,60.548,219.621,58.979,217.687,58.979z M83.48,43.21h58.906l9.701,15.77H73.777L83.48,43.21z M195.987,177.979H25.203
		v-60.449h52.814v6.133c0,7.73,6.286,14.017,14.017,14.017h37.125c7.727,0,14.01-6.286,14.01-14.017v-6.133h52.817V177.979z
		 M85.025,117.529h51.135v6.133c0,3.863-3.138,7.008-7.001,7.008H92.034c-3.866,0-7.009-3.145-7.009-7.008V117.529z
		 M136.161,110.521H85.025v-6.132c0-3.866,3.143-7.009,7.009-7.009h37.125c3.863,0,7.001,3.143,7.001,7.009V110.521z
		 M214.183,110.521h-14.685h-56.329v-6.132c0-7.731-6.283-14.017-14.01-14.017H92.034c-7.731,0-14.017,6.286-14.017,14.017v6.132
		H21.698H7.009V65.988h60.495h90.853h0.072h55.754V110.521z"/>
</g>
</svg>