<?xml version="1.0" encoding="UTF-8"?>
<svg id="Layer_1" data-name="Layer 1" xmlns="http://www.w3.org/2000/svg" version="1.1" viewBox="0 0 800 800">
  <defs>
    <style>
      .cls-1 {
        fill: #000;
      }

      .cls-1, .cls-2 {
        stroke-width: 0px;
      }

      .cls-2 {
        fill: #fff;
      }
    </style>
  </defs>
  <g id="Group_3276" data-name="Group 3276">
    <g id="Group_3270" data-name="Group 3270">
      <path class="cls-1" d="M665.6,471.9c-10.2,0-18.5-8.3-18.5-18.5,0-45.4-34-82.8-78.4-87.8-2-.2-4.1-.4-6.2-.5h-.3c-1.1,0-2.2,0-3.4,0h-19.2c-.6,0-1.2,0-1.8,0-.3,0-.7,0-1,0-9,.7-17.3,4.9-23.2,11.5-1.6,1.8-3,3.7-4.2,5.8l-3.4,5.8h29.9c6.4,0,11.6,5.2,11.6,11.6s-5.2,11.6-11.6,11.6h-29.9l3.4,5.8c1.2,2.1,2.6,4,4.2,5.8,5.9,6.6,14.2,10.8,23.2,11.5.3,0,.6,0,.9,0h0c.7,0,1.3,0,1.9,0h19.2c.5,0,1.1,0,1.6,0h.4c3.4.4,6.6,1.7,9.1,3.7,4.5,3.4,7.3,8.7,7.3,14.7,0,48.6,39.7,88.2,88.3,88.3,19.3,0,34.9-15.7,34.9-34.9s-15.7-34.9-34.9-34.9ZM665.6,518.4c-35.8,0-65-29.2-65-65,0-19.6-13.5-36.2-32.1-40.6-1.6-.4-3.2-.7-4.8-.8-.2,0-.5,0-.7,0-1.4-.1-2.8-.2-4.2-.2h-2.7c.1-.2.2-.4.4-.7s.2-.4.3-.7c.4-.7.7-1.5,1-2.2.2-.4.3-.8.4-1.2,0-.2.1-.5.2-.7,0-.2.1-.5.2-.7,0,0,0,0,0,0,0-.3.1-.5.2-.8,0-.3.1-.7.2-1,0-.5.1-1,.2-1.4,0-.3,0-.6,0-.9,0-.4,0-.8,0-1.2s0-.8,0-1.2c0-.3,0-.6,0-.9,0-.1,0-.2,0-.3,0-.4,0-.8-.1-1.2,0-.3-.1-.7-.2-1,0-.3-.1-.6-.2-.8,0-.2-.1-.5-.2-.7,0-.2-.1-.5-.2-.7-.1-.5-.3-1-.5-1.5,0-.2-.2-.5-.3-.7-.4-.9-.8-1.8-1.3-2.7h2.7c.9,0,1.7,0,2.5,0h.4c2.5.1,5,.4,7.4.8,31.2,5,54.6,31.9,54.7,64.2,0,23,18.8,41.7,41.8,41.7,6.4,0,11.6,5.2,11.6,11.6s-5.2,11.6-11.6,11.6Z"/>
    </g>
    <polygon class="cls-1" points="452.4 365.1 440.7 376.7 429.1 388.4 372.9 388.4 361.2 376.7 349.6 365.1 452.4 365.1"/>
    <path class="cls-1" d="M401,383.5l-4.8,4.8h9.6l-4.8-4.8ZM509.1,491.6l-10.2-10.2-11.6-11.6-11.6-11.6h-32.9l11.6,11.6,11.6,11.6,26.6,26.6c37.8,37.8,49,92.3,29.2,142.3-19.2,48.8-63.4,80.2-115.3,81.9h0c-1.8,0-3.6,0-5.5,0s-3.7,0-5.5,0c-51.9-1.8-96.1-33.2-115.3-81.9-19.7-50-8.5-104.5,29.2-142.3l26.6-26.6,11.6-11.6,11.6-11.6h-32.9l-11.6,11.6-11.6,11.6-10.2,10.2c-44.4,44.4-57.6,108.5-34.4,167.3,22.7,57.6,74.9,94.6,136.2,96.7,2,0,4.1.1,6.3.1s4.3,0,6.3-.1c61.3-2.1,113.5-39.1,136.2-96.7,23.2-58.8,10-122.9-34.4-167.3ZM394.2,423.3l6.8-6.8,6.8,6.8,11.6,11.6h32.9l-11.6-11.6-11.6-11.6h-56.2l-11.6,11.6-11.6,11.6h32.9l11.6-11.6Z"/>
    <path class="cls-1" d="M543.5,141.1c-22.7-57.6-74.9-94.6-136.2-96.7-2,0-4.1-.1-6.3-.1s-4.3,0-6.3.1c-61.3,2.1-113.5,39.1-136.2,96.7-23.2,58.8-10,122.9,34.4,167.3l10.1,10.1,11.6,11.6,11.6,11.6h149.3l11.6-11.6,11.6-11.6,10.1-10.1c44.4-44.4,57.6-108.5,34.4-167.3ZM492.6,291.9l-26.6,26.6-11.6,11.6h-106.8l-38.2-38.2c-37.8-37.8-49-92.3-29.2-142.3,19.2-48.8,63.5-80.2,115.4-81.9,1.8,0,3.6,0,5.5,0s3.8,0,5.5,0c51.9,1.8,96.1,33.2,115.3,81.9,19.7,50,8.5,104.5-29.2,142.3Z"/>
    <g id="Group_3271" data-name="Group 3271">
      <g id="Path_1701" data-name="Path 1701">
        <path class="cls-1" d="M477.7,523l-41.5-41.5-11.6-11.6-11.6-11.6h-24l-11.6,11.6-11.6,11.6-41.5,41.5c-31.7,31.4-41.3,78.3-24.6,119.7,7.4,19.9,20.4,36.8,37.7,49.1,17.3,12.3,37.7,19.1,58.9,19.5,1.6,0,3.1,0,4.7,0s3.2,0,4.8,0c21.2-.5,41.6-7.2,58.9-19.5,17.3-12.3,30.3-29.3,37.7-49.2,16.7-41.3,7.1-88.3-24.6-119.6ZM480.7,634v.3c-11.9,31.9-41.5,53-75.5,53.7h-.2c-2.7,0-5.4,0-8.1,0h-.2c-34-.7-63.6-21.8-75.4-53.7v-.3c-13.4-32.6-5.8-69.8,19.3-94.6l57.9-58,2.3-2.3,2.3,2.3,58,58c25,24.8,32.6,61.9,19.4,94.5ZM502.3,157.4c-7.4-19.9-20.4-36.9-37.7-49.2-17.3-12.3-37.7-19.1-58.9-19.5-2.8,0-6-.2-9.6,0-21.2.5-41.5,7.2-58.8,19.5-17.3,12.3-30.3,29.3-37.7,49.2-16.7,41.3-7.1,88.3,24.6,119.6l41.5,41.5h32.9l-58-58c-25-24.8-32.6-61.9-19.4-94.5v-.3c11.9-31.9,41.5-52.9,75.5-53.7h.3c1.2,0,2.5,0,3.9,0s2.8,0,4,0h.2c34,.7,63.6,21.8,75.4,53.7v.3c13.4,32.6,5.8,69.7-19.3,94.6l-57.9,57.9h32.9l41.4-41.4c31.7-31.4,41.3-78.4,24.6-119.7ZM477.7,523l-41.5-41.5-11.6-11.6-11.6-11.6h-24l-11.6,11.6-11.6,11.6-41.5,41.5c-31.7,31.4-41.3,78.3-24.6,119.7,7.4,19.9,20.4,36.8,37.7,49.1,17.3,12.3,37.7,19.1,58.9,19.5,1.6,0,3.1,0,4.7,0s3.2,0,4.8,0c21.2-.5,41.6-7.2,58.9-19.5,17.3-12.3,30.3-29.3,37.7-49.2,16.7-41.3,7.1-88.3-24.6-119.6ZM480.7,634v.3c-11.9,31.9-41.5,53-75.5,53.7h-.2c-2.7,0-5.4,0-8.1,0h-.2c-34-.7-63.6-21.8-75.4-53.7v-.3c-13.4-32.6-5.8-69.8,19.3-94.6l57.9-58,2.3-2.3,2.3,2.3,58,58c25,24.8,32.6,61.9,19.4,94.5ZM502.3,157.4c-7.4-19.9-20.4-36.9-37.7-49.2-17.3-12.3-37.7-19.1-58.9-19.5-2.8,0-6-.2-9.6,0-21.2.5-41.5,7.2-58.8,19.5-17.3,12.3-30.3,29.3-37.7,49.2-16.7,41.3-7.1,88.3,24.6,119.6l41.5,41.5h32.9l-58-58c-25-24.8-32.6-61.9-19.4-94.5v-.3c11.9-31.9,41.5-52.9,75.5-53.7h.3c1.2,0,2.5,0,3.9,0s2.8,0,4,0h.2c34,.7,63.6,21.8,75.4,53.7v.3c13.4,32.6,5.8,69.7-19.3,94.6l-57.9,57.9h32.9l41.4-41.4c31.7-31.4,41.3-78.4,24.6-119.7ZM584.7,124.8c-13.8-36-37.6-66.7-69-89C484.2,13.5,447.3,1.2,408.8.1c-5.3-.2-10.6-.2-15.5,0-38.5,1.1-75.5,13.4-107,35.7-31.4,22.3-55.3,53-69,89-13.6,33.5-17.7,70.1-12,105.8,5.5,34.3,20,66.5,42,93.4.8,1,1.6,1.9,2.4,2.8,1.7,2.1,3.5,4.1,5.4,6.1,1.7,1.8,3.4,3.6,5.2,5.4.5.5,1,1,1.4,1.4l2.3,2.3c.7-.1,1.4-.2,2.2-.2h269.9c.7,0,1.5,0,2.2.2l2.3-2.3c.5-.5.9-.9,1.4-1.4,1.8-1.8,3.5-3.6,5.2-5.4,1.8-2,3.6-4,5.4-6.1.8-1,1.6-1.9,2.4-2.9,22-26.9,36.5-59.1,42-93.4,5.8-35.7,1.6-72.3-12-105.8ZM534.6,311.8c-1.9,2.3-3.9,4.5-6,6.7-1.1,1.2-2.2,2.3-3.3,3.4h0c-.4.5-.7.8-1.1,1.2l-7,7h-92.4l11.6-11.6,41.4-41.4c31.7-31.4,41.3-78.4,24.6-119.7-7.4-19.9-20.4-36.9-37.7-49.2-17.3-12.3-37.7-19.1-58.9-19.5-2.8,0-6-.2-9.6,0-21.2.5-41.5,7.2-58.8,19.5-17.3,12.3-30.3,29.3-37.7,49.2-16.7,41.3-7.1,88.3,24.6,119.6l41.5,41.5,11.6,11.6h-92.4l-6.9-6.9h0c-.4-.5-.8-.8-1.2-1.3-1.1-1.1-2.2-2.3-3.3-3.4-2.1-2.2-4.1-4.5-6-6.7-42.1-49.6-53.1-118-28.5-178.3v-.2c24.9-64.8,85.7-107.9,155.1-109.8,4.5-.2,9.2-.2,14.1,0,69.4,1.9,130.2,45,155,109.8v.2c24.6,60.4,13.7,128.7-28.5,178.4ZM398.7,318.5l-58-58c-25-24.8-32.6-61.9-19.4-94.5v-.3c11.9-31.9,41.5-52.9,75.5-53.7h.3c1.2,0,2.5,0,3.9,0s2.8,0,4,0h.2c34,.7,63.6,21.8,75.4,53.7v.3c13.4,32.6,5.8,69.7-19.3,94.6l-60.3,60.3-2.3-2.3ZM502.3,157.4c-7.4-19.9-20.4-36.9-37.7-49.2-17.3-12.3-37.7-19.1-58.9-19.5-2.8,0-6-.2-9.6,0-21.2.5-41.5,7.2-58.8,19.5-17.3,12.3-30.3,29.3-37.7,49.2-16.7,41.3-7.1,88.3,24.6,119.6l41.5,41.5h32.9l-58-58c-25-24.8-32.6-61.9-19.4-94.5v-.3c11.9-31.9,41.5-52.9,75.5-53.7h.3c1.2,0,2.5,0,3.9,0s2.8,0,4,0h.2c34,.7,63.6,21.8,75.4,53.7v.3c13.4,32.6,5.8,69.7-19.3,94.6l-57.9,57.9h32.9l41.4-41.4c31.7-31.4,41.3-78.4,24.6-119.7ZM287,365.1l23.3,23.3h181.5l23.3-23.3h-228.1ZM477.7,523l-41.5-41.5-11.6-11.6-11.6-11.6h-24l-11.6,11.6-11.6,11.6-41.5,41.5c-31.7,31.4-41.3,78.3-24.6,119.7,7.4,19.9,20.4,36.8,37.7,49.1,17.3,12.3,37.7,19.1,58.9,19.5,1.6,0,3.1,0,4.7,0s3.2,0,4.8,0c21.2-.5,41.6-7.2,58.9-19.5,17.3-12.3,30.3-29.3,37.7-49.2,16.7-41.3,7.1-88.3-24.6-119.6ZM480.7,634v.3c-11.9,31.9-41.5,53-75.5,53.7h-.2c-2.7,0-5.4,0-8.1,0h-.2c-34-.7-63.6-21.8-75.4-53.7v-.3c-13.4-32.6-5.8-69.8,19.3-94.6l57.9-58,2.3-2.3,2.3,2.3,58,58c25,24.8,32.6,61.9,19.4,94.5ZM477.7,523l-41.5-41.5-11.6-11.6-11.6-11.6h-24l-11.6,11.6-11.6,11.6-41.5,41.5c-31.7,31.4-41.3,78.3-24.6,119.7,7.4,19.9,20.4,36.8,37.7,49.1,17.3,12.3,37.7,19.1,58.9,19.5,1.6,0,3.1,0,4.7,0s3.2,0,4.8,0c21.2-.5,41.6-7.2,58.9-19.5,17.3-12.3,30.3-29.3,37.7-49.2,16.7-41.3,7.1-88.3-24.6-119.6ZM480.7,634v.3c-11.9,31.9-41.5,53-75.5,53.7h-.2c-2.7,0-5.4,0-8.1,0h-.2c-34-.7-63.6-21.8-75.4-53.7v-.3c-13.4-32.6-5.8-69.8,19.3-94.6l57.9-58,2.3-2.3,2.3,2.3,58,58c25,24.8,32.6,61.9,19.4,94.5ZM596.7,569.4c-5.5-34.3-20-66.5-42-93.4-.8-1-1.6-1.9-2.4-2.8h0c-1.8-2.1-3.5-4.1-5.4-6.1-1.7-1.8-3.4-3.7-5.2-5.4-.5-.5-1-.9-1.4-1.4l-2.2-2.2c-.7.1-1.5.2-2.2.2h-30.5l11.6,11.6,6.9,6.9h0c.4.5.8.9,1.2,1.2h0c1.1,1.2,2.2,2.3,3.3,3.5,2,2.2,4,4.4,6,6.7,42.1,49.7,53.1,118,28.5,178.3v.2c-24.9,64.8-85.7,108-155,109.8h0c-2.3,0-4.6.1-7,.1s-4.8,0-7-.1h-.1c-69.4-1.9-130.2-45-155-109.8v-.2c-24.6-60.4-13.7-128.7,28.4-178.3,1.9-2.3,3.9-4.5,6-6.7,1.1-1.2,2.2-2.3,3.3-3.4h0c.4-.5.8-.9,1.2-1.2l18.6-18.6h-30.5c-.7,0-1.5,0-2.2-.2l-2.2,2.2c-.5.5-1,1-1.4,1.4-1.8,1.8-3.5,3.6-5.2,5.4-1.8,2-3.6,4-5.4,6.1-.8,1-1.6,1.9-2.4,2.9-21.9,26.9-36.4,59.1-42,93.4-5.8,35.7-1.6,72.3,12,105.8,13.8,36,37.6,66.8,69,89,31.4,22.3,68.4,34.6,106.9,35.7,2.5,0,5.1.1,7.8.1s5.2,0,7.8-.1c38.5-1.1,75.5-13.4,106.9-35.7,31.4-22.3,55.3-53,69-89,13.6-33.5,17.7-70.1,12-105.8ZM424.6,469.8l-11.6-11.6h-24l-11.6,11.6-11.6,11.6-41.5,41.5c-31.7,31.4-41.3,78.3-24.6,119.7,7.4,19.9,20.4,36.8,37.7,49.1,17.3,12.3,37.7,19.1,58.9,19.5,1.6,0,3.1,0,4.7,0s3.2,0,4.8,0c21.2-.5,41.6-7.2,58.9-19.5,17.3-12.3,30.3-29.3,37.7-49.2,16.7-41.3,7.1-88.3-24.6-119.6l-41.5-41.5-11.6-11.6ZM461.3,539.5c25,24.8,32.6,61.9,19.4,94.5v.3c-11.9,31.9-41.5,53-75.5,53.7h-.2c-2.7,0-5.4,0-8.1,0h-.2c-34-.7-63.6-21.8-75.4-53.7v-.3c-13.4-32.6-5.8-69.8,19.3-94.6l57.9-58,2.3-2.3,2.3,2.3,58,58ZM331.5,423.3h62.7l6.8-6.8,6.8,6.8h62.7l11.6,11.6h32.9l-11.6-11.6-11.7-11.6h-181.5l-11.6,11.6-11.6,11.6h32.9l11.6-11.6ZM477.7,523l-41.5-41.5-11.6-11.6-11.6-11.6h-24l-11.6,11.6-11.6,11.6-41.5,41.5c-31.7,31.4-41.3,78.3-24.6,119.7,7.4,19.9,20.4,36.8,37.7,49.1,17.3,12.3,37.7,19.1,58.9,19.5,1.6,0,3.1,0,4.7,0s3.2,0,4.8,0c21.2-.5,41.6-7.2,58.9-19.5,17.3-12.3,30.3-29.3,37.7-49.2,16.7-41.3,7.1-88.3-24.6-119.6ZM480.7,634v.3c-11.9,31.9-41.5,53-75.5,53.7h-.2c-2.7,0-5.4,0-8.1,0h-.2c-34-.7-63.6-21.8-75.4-53.7v-.3c-13.4-32.6-5.8-69.8,19.3-94.6l57.9-58,2.3-2.3,2.3,2.3,58,58c25,24.8,32.6,61.9,19.4,94.5ZM477.7,523l-41.5-41.5-11.6-11.6-11.6-11.6h-24l-11.6,11.6-11.6,11.6-41.5,41.5c-31.7,31.4-41.3,78.3-24.6,119.7,7.4,19.9,20.4,36.8,37.7,49.1,17.3,12.3,37.7,19.1,58.9,19.5,1.6,0,3.1,0,4.7,0s3.2,0,4.8,0c21.2-.5,41.6-7.2,58.9-19.5,17.3-12.3,30.3-29.3,37.7-49.2,16.7-41.3,7.1-88.3-24.6-119.6ZM480.7,634v.3c-11.9,31.9-41.5,53-75.5,53.7h-.2c-2.7,0-5.4,0-8.1,0h-.2c-34-.7-63.6-21.8-75.4-53.7v-.3c-13.4-32.6-5.8-69.8,19.3-94.6l57.9-58,2.3-2.3,2.3,2.3,58,58c25,24.8,32.6,61.9,19.4,94.5Z"/>
      </g>
    </g>
    <g id="Group_3275" data-name="Group 3275">
      <g id="Group_3272" data-name="Group 3272">
        <g id="Path_1702" data-name="Path 1702">
          <path class="cls-2" d="M547,332.9c-3.3-1.8-7-2.8-11-2.8h-269.9c-4,0-7.7,1-11,2.8-2,1.1-3.8,2.5-5.4,4-4.2,4.2-6.8,10-6.8,16.5s2.4,11.8,6.4,16c4.2,4.5,10.2,7.3,16.9,7.3h269.9c6.4,0,12.2-2.6,16.5-6.8.1-.2.3-.3.4-.5,1.3-1.3,2.4-2.8,3.3-4.4,2-3.4,3.1-7.4,3.1-11.6,0-8.9-5-16.6-12.3-20.5ZM266,365.1c-6.4,0-11.6-5.2-11.6-11.6s4.1-10.4,9.5-11.4c.7-.1,1.4-.2,2.2-.2h269.9c.7,0,1.5,0,2.2.2,5.4,1,9.5,5.8,9.5,11.4s-5.2,11.6-11.6,11.6h-269.9Z"/>
          <path class="cls-1" d="M554.7,324c-3.4-2.2-7.2-3.8-11.2-4.7-2.4-.5-4.9-.8-7.5-.8h-269.9c-2.6,0-5.1.3-7.5.8-4.1.9-7.8,2.5-11.2,4.7-9.7,6.2-16.2,17.1-16.2,29.4s3.4,17.1,8.9,23.3c2.6,2.9,5.7,5.4,9.1,7.3,5,2.8,10.8,4.4,16.9,4.4h269.9c6.1,0,11.9-1.6,16.9-4.4,3.4-1.9,6.5-4.3,9-7.2,0,0,0,0,0,0,2.9-3.2,5.2-7,6.7-11.1,1.4-3.8,2.2-7.9,2.2-12.2,0-12.4-6.5-23.2-16.2-29.4ZM266,365.1c-6.4,0-11.6-5.2-11.6-11.6s4.1-10.4,9.5-11.4c.7-.1,1.4-.2,2.2-.2h269.9c.7,0,1.5,0,2.2.2,5.4,1,9.5,5.8,9.5,11.4s-5.2,11.6-11.6,11.6h-269.9Z"/>
        </g>
      </g>
      <g id="Group_3273" data-name="Group 3273">
        <g id="Path_1703" data-name="Path 1703">
          <path class="cls-2" d="M559.2,398.8c0-.3,0-.6,0-.9,0-.1,0-.2,0-.3,0-.4,0-.8-.1-1.2,0-.3-.1-.7-.2-1,0-.3-.1-.6-.2-.8,0-.2-.1-.5-.2-.7,0-.2-.1-.5-.2-.7-.1-.5-.3-1-.5-1.5,0-.2-.2-.5-.3-.7-.4-.9-.8-1.8-1.3-2.7-.9-1.6-2-3-3.3-4.4-3.8-4.1-9.1-6.7-15.1-7.2-.6,0-1.2,0-1.8,0h-269.9c-6.4,0-12.2,2.6-16.5,6.8s-.3.3-.4.5c-4,4.2-6.4,9.8-6.4,16s2.4,11.8,6.4,16c4.2,4.5,10.2,7.3,16.9,7.3h269.9c.6,0,1.2,0,1.8,0,5.7-.4,10.9-2.9,14.7-6.8.1-.2.3-.3.4-.5,1.3-1.3,2.3-2.8,3.3-4.4h0c.1-.2.2-.4.4-.7.1-.2.2-.4.3-.7.4-.7.7-1.5,1-2.2.2-.4.3-.8.4-1.2,0-.2.1-.5.2-.7,0-.2.1-.5.2-.7,0,0,0,0,0,0,0-.3.1-.5.2-.8,0-.3.1-.7.2-1,0-.5.1-1,.2-1.4,0-.3,0-.6,0-.9,0-.4,0-.8,0-1.2s0-.8,0-1.2ZM266,411.6c-6.4,0-11.6-5.2-11.6-11.6s5.2-11.6,11.6-11.6h269.9c6.4,0,11.6,5.2,11.6,11.6s-5.2,11.6-11.6,11.6h-269.9Z"/>
          <path class="cls-1" d="M569.1,389.2c-1.5-4.6-4-8.8-7.1-12.4,0,0,0,0,0,0-2.6-2.9-5.7-5.4-9.1-7.3-4.5-2.5-9.6-4-15.1-4.3-.6,0-1.2,0-1.8,0h-269.9c-6.1,0-11.9,1.6-16.9,4.4-3.4,1.9-6.5,4.4-9.1,7.3-5.5,6.2-8.9,14.3-8.9,23.3s3.4,17.1,8.9,23.3c2.6,2.9,5.7,5.4,9.1,7.3,5,2.8,10.8,4.4,16.9,4.4h269.9c.6,0,1.2,0,1.8,0h0c5.5-.3,10.6-1.8,15.1-4.3,3.4-1.9,6.4-4.3,9-7.1,0,0,.1-.1.2-.2,2.7-3.1,5-6.6,6.5-10.5,1.6-4,2.4-8.3,2.4-12.8s-.6-7.4-1.7-10.8ZM547.6,400c0,6.4-5.2,11.6-11.6,11.6h-269.9c-6.4,0-11.6-5.2-11.6-11.6s5.2-11.6,11.6-11.6h269.9c6.4,0,11.6,5.2,11.6,11.6Z"/>
        </g>
      </g>
      <g id="Group_3274" data-name="Group 3274">
        <g id="Path_1704" data-name="Path 1704">
          <path class="cls-2" d="M556.1,434.9c-.9-1.6-2-3.1-3.3-4.4-4.2-4.5-10.2-7.3-16.9-7.3h-269.9c-6.4,0-12.2,2.6-16.5,6.8s-.3.3-.4.5c-4,4.2-6.4,9.8-6.4,16,0,8.9,5,16.6,12.3,20.5,3.3,1.8,7,2.8,11,2.8h269.9c4,0,7.8-1,11-2.8,2-1.1,3.8-2.4,5.4-4,4.2-4.2,6.8-10,6.8-16.5s-1.1-8.2-3.1-11.6ZM538.2,458c-.7.1-1.5.2-2.2.2h-269.9c-.7,0-1.5,0-2.2-.2-5.4-1-9.5-5.8-9.5-11.4s5.2-11.6,11.6-11.6h269.9c6.4,0,11.6,5.2,11.6,11.6s-4.1,10.4-9.4,11.4Z"/>
          <path class="cls-1" d="M570,438.7c-1.3-5.7-4.1-10.9-7.8-15.2,0,0-.1-.1-.2-.2-2.6-2.9-5.7-5.4-9.1-7.3-5-2.8-10.8-4.4-16.9-4.4h-269.9c-6.1,0-11.9,1.6-16.9,4.4-3.4,1.9-6.5,4.4-9.1,7.3-5.5,6.2-8.9,14.3-8.9,23.3s6.5,23.2,16.2,29.4c3.4,2.2,7.2,3.8,11.2,4.7,2.4.5,4.9.8,7.5.8h269.9c2.6,0,5.1-.3,7.5-.8,4.1-.9,7.9-2.5,11.2-4.7,9.7-6.2,16.1-17.1,16.1-29.4s-.3-5.3-.9-7.9ZM538.2,458c-.7.1-1.5.2-2.2.2h-269.9c-.7,0-1.5,0-2.2-.2-5.4-1-9.5-5.8-9.5-11.4s5.2-11.6,11.6-11.6h269.9c6.4,0,11.6,5.2,11.6,11.6s-4.1,10.4-9.4,11.4Z"/>
        </g>
      </g>
    </g>
  </g>
</svg>