<?xml version="1.0" encoding="iso-8859-1"?>
<!-- Uploaded to: SVG Repo, www.svgrepo.com, Generator: SVG Repo Mixer Tools -->
<!DOCTYPE svg PUBLIC "-//W3C//DTD SVG 1.1//EN" "http://www.w3.org/Graphics/SVG/1.1/DTD/svg11.dtd">
<svg fill="#000000" version="1.1" id="Capa_1" xmlns="http://www.w3.org/2000/svg" xmlns:xlink="http://www.w3.org/1999/xlink" 
	 width="800px" height="800px" viewBox="0 0 235.739 235.739"
	 xml:space="preserve">
<g>
	<g>
		<path d="M235.404,175.569l-6.845-28.172c-0.383-1.567-1.793-2.676-3.408-2.676h-28.849l-7.307-27.069h23.015
			c0.023,0,0.055,0,0.071,0c1.938,0,3.505-1.572,3.505-3.506c0-0.529-0.116-1.034-0.332-1.482l-6.845-28.171
			c-0.383-1.571-1.793-2.678-3.408-2.678h-68.125c8.343-5.965,13.809-15.706,13.809-26.72c0-18.114-14.739-32.853-32.853-32.853
			c-18.113,0-32.853,14.739-32.853,32.853c0,11.014,5.467,20.755,13.81,26.72H30.664c-1.616,0-3.024,1.104-3.407,2.678
			l-7.009,28.825c-0.251,1.045-0.014,2.149,0.652,2.994c0.666,0.844,1.679,1.34,2.755,1.34h21.797l-7.308,27.069h-27.63
			c-1.615,0-3.023,1.102-3.407,2.676l-7.009,28.829c-0.251,1.047-0.014,2.148,0.652,2.994c0.666,0.845,1.679,1.338,2.755,1.338
			h26.142l-2.976,10.602c-0.364,0.992-0.602,1.861-0.719,2.525c-0.068,0.25-0.108,0.5-0.122,0.753
			c-0.109,0.678-0.207,1.506-0.207,2.413c0,9.175,7.467,16.646,16.646,16.646c8.939,0,16.257-7.081,16.632-15.938l6.788-17.001
			h103.209l6.331,15.858c0.376,8.85,7.692,15.934,16.631,15.934c9.179,0,16.646-7.468,16.646-16.646c0-1.02-0.13-1.951-0.239-2.618
			c-0.01-0.12-0.027-0.243-0.051-0.366c-0.175-0.934-0.442-1.827-0.671-2.446l-2.731-9.709h27.35c0.024,0,0.056,0,0.072,0
			c1.938,0,3.504-1.567,3.504-3.505C235.736,176.527,235.616,176.021,235.404,175.569z M91.988,55.099
			c0-14.248,11.596-25.844,25.844-25.844c14.25,0,25.844,11.596,25.844,25.844s-11.594,25.844-25.844,25.844
			C103.584,80.943,91.988,69.347,91.988,55.099z M52.158,195.551c-0.165,0.414-0.249,0.855-0.249,1.301
			c0,5.314-4.32,9.637-9.637,9.637s-9.637-4.322-9.637-9.637c0-0.555,0.081-1.092,0.171-1.619c0.015-0.082,0.029-0.171,0.036-0.25
			c0.101-0.496,0.258-0.981,0.501-1.673l3.261-11.608h21.082L52.158,195.551z M189.037,144.725h-22.442l-6.427-27.072h21.563
			L189.037,144.725z M33.418,88.828h168.829l5.308,21.818h-23.141H156.38H28.112L33.418,88.828z M152.968,117.652
			c0.004,0.007,0.004,0.014,0.004,0.021l6.423,27.052H75.009l6.151-25.908c0.063-0.268,0.094-0.541,0.094-0.812v-0.353H152.968z
			 M52.404,118.795h21.562l-6.153,25.927H45.406L52.404,118.795z M200.875,192.42c0.161,0.444,0.308,0.91,0.41,1.389
			c0.011,0.097,0.024,0.199,0.041,0.298c0.093,0.524,0.171,1.051,0.171,1.599c0,5.318-4.318,9.637-9.637,9.637
			c-5.314,0-9.637-4.318-9.637-9.637c0-0.445-0.082-0.887-0.246-1.301l-5.53-13.846h21.088L200.875,192.42z M200.184,173.55h-28.91
			H7.962l5.306-21.819h24.747c0.659,0.691,1.535,1.143,2.502,1.143h29.786c1,0,1.879-0.451,2.527-1.143h90.995h29.787h28.783
			l5.308,21.819H200.184z"/>
		<path d="M117.833,67.364c6.766,0,12.265-5.501,12.265-12.265s-5.499-12.265-12.265-12.265c-6.764,0-12.265,5.501-12.265,12.265
			S111.069,67.364,117.833,67.364z M117.833,49.842c2.899,0,5.256,2.358,5.256,5.256s-2.357,5.256-5.256,5.256
			c-2.898,0-5.256-2.358-5.256-5.256S114.934,49.842,117.833,49.842z"/>
	</g>
</g>
</svg>