<?xml version="1.0" encoding="iso-8859-1"?>
<!-- Uploaded to: SVG Repo, www.svgrepo.com, Generator: SVG Repo Mixer Tools -->
<!DOCTYPE svg PUBLIC "-//W3C//DTD SVG 1.1//EN" "http://www.w3.org/Graphics/SVG/1.1/DTD/svg11.dtd">
<svg fill="#000000" version="1.1" id="Capa_1" xmlns="http://www.w3.org/2000/svg" xmlns:xlink="http://www.w3.org/1999/xlink" 
	 width="800px" height="800px" viewBox="0 0 301.838 301.837"
	 xml:space="preserve">
<g>
	<path d="M178.156,85.143c2.908,0,5.256-2.354,5.256-5.256V61.913h59.819c2.905,0,5.257-2.356,5.257-5.256
		c0-29.692-38.144-54.048-88.723-56.654c-1.424-0.043-2.848,0.448-3.892,1.436c-1.044,0.993-1.638,2.374-1.638,3.814v20.331h-6.639
		V5.252c0-1.44-0.594-2.821-1.637-3.814c-1.044-0.991-2.445-1.479-3.889-1.436C91.493,2.608,53.35,26.964,53.35,56.656
		c0,2.9,2.351,5.256,5.257,5.256h59.817l-0.003,17.974c0,1.391,0.553,2.729,1.539,3.718c0.983,0.984,2.323,1.539,3.718,1.539h13.915
		v5.631H123.68c-2.902,0-5.256,2.354-5.256,5.256v14.124c0,1.391,0.553,2.729,1.538,3.716c0.984,0.986,2.324,1.54,3.718,1.54h13.911
		v5.628H123.68c-1.395,0-2.731,0.553-3.718,1.538c-0.989,0.984-1.538,2.324-1.538,3.718v14.122c0,2.902,2.354,5.256,5.256,5.256
		h13.911v5.631H123.68c-1.395,0-2.731,0.554-3.718,1.538c-0.989,0.985-1.538,2.322-1.538,3.719v14.123
		c0,2.898,2.354,5.256,5.256,5.256h13.911v5.626H123.68c-2.902,0-5.256,2.354-5.256,5.257v14.123c0,1.39,0.553,2.73,1.538,3.717
		c0.984,0.988,2.324,1.54,3.718,1.54h13.915v5.626h-13.911c-2.902,0-5.256,2.354-5.256,5.256v14.124c0,1.393,0.554,2.73,1.539,3.72
		c0.983,0.982,2.323,1.536,3.718,1.536h13.911v5.633h-13.908c-2.905,0-5.256,2.354-5.256,5.257v15.934
		c0,1.215,0.421,2.389,1.188,3.33l27.239,33.294c1,1.218,2.491,1.927,4.069,1.927c1.578,0,3.069-0.709,4.069-1.927l27.24-33.294
		c0.767-0.945,1.184-2.119,1.184-3.33v-15.934c0-2.902-2.348-5.257-5.256-5.257h-13.908v-5.633h13.908
		c2.908,0,5.256-2.354,5.256-5.256v-14.124c0-2.901-2.348-5.256-5.256-5.256h-13.908v-5.626h13.908c2.908,0,5.256-2.354,5.256-5.257
		v-14.123c0-2.902-2.348-5.257-5.256-5.257h-13.908v-5.626h13.908c2.908,0,5.256-2.357,5.256-5.256V156.56
		c0-2.901-2.348-5.257-5.256-5.257h-13.908v-5.631h13.908c2.901,0,5.256-2.354,5.256-5.256v-14.122c0-2.902-2.354-5.256-5.256-5.256
		h-13.915v-5.628h13.915c0.021-0.003,0.048-0.003,0.068,0c2.905,0,5.256-2.356,5.256-5.256c0-0.294-0.023-0.582-0.068-0.862V96.03
		c0-2.902-2.354-5.256-5.256-5.256h-13.915v-5.631H178.156z M158.992,101.287h13.914v3.61h-13.914c-2.902,0-5.255,2.354-5.255,5.256
		v16.141c0,2.9,2.353,5.256,5.255,5.256h13.914v3.609h-13.907c-2.902,0-5.259,2.354-5.259,5.256v16.145
		c0,1.389,0.553,2.73,1.539,3.716c0.981,0.989,2.323,1.54,3.72,1.54h13.907v3.61h-13.907c-2.902,0-5.255,2.354-5.255,5.257v16.139
		c0,2.902,2.353,5.256,5.255,5.256h13.907v3.611h-13.907c-2.902,0-5.259,2.354-5.259,5.256v16.139c0,1.394,0.553,2.731,1.539,3.721
		c0.981,0.988,2.323,1.536,3.72,1.536h13.907v3.61h-13.907c-2.909,0-5.259,2.354-5.259,5.257v16.146c0,2.902,2.35,5.256,5.259,5.256
		h13.907v8.803l-21.987,26.877l-21.982-26.867v-8.802h13.908c2.902,0,5.256-2.354,5.256-5.257v-16.146
		c0-1.39-0.552-2.73-1.538-3.716c-0.984-0.989-2.322-1.541-3.718-1.541h-13.911v-3.609h13.911c1.396,0,2.73-0.552,3.718-1.537
		c0.989-0.985,1.538-2.323,1.538-3.72l-0.003-16.139c0-2.905-2.354-5.257-5.257-5.257H128.93v-3.61h13.911
		c2.902,0,5.257-2.354,5.257-5.257v-16.139c0-1.393-0.553-2.73-1.539-3.72c-0.984-0.989-2.324-1.536-3.718-1.536H128.93v-3.61
		h13.911c2.906,0,5.257-2.354,5.257-5.257v-16.144c0-2.902-2.351-5.256-5.257-5.256H128.93v-3.609h13.911
		c2.902,0,5.257-2.356,5.257-5.256v-16.141c0-1.391-0.553-2.731-1.539-3.718c-0.984-0.989-2.324-1.538-3.718-1.538H128.93v-3.61
		h13.911c1.395,0,2.731-0.553,3.718-1.539c0.989-0.983,1.539-2.323,1.539-3.718l-0.004-16.145c0-2.905-2.354-5.256-5.256-5.256
		h-13.911l0.003-17.974c0-1.391-0.554-2.729-1.538-3.718c-0.979-0.996-2.317-1.549-3.708-1.549H64.436
		c4.466-20.326,34.42-37.192,72.649-40.517v19.953c0,2.902,2.351,5.256,5.256,5.256h17.15c1.396,0,2.731-0.553,3.72-1.539
		c0.989-0.983,1.537-2.323,1.537-3.718V10.883c38.232,3.321,68.189,20.191,72.659,40.517h-59.251c-2.902,0-5.257,2.354-5.257,5.256
		v17.973h-13.907c-2.909,0-5.259,2.354-5.259,5.257V96.03C153.737,98.932,156.09,101.287,158.992,101.287z"/>
</g>
</svg>