<?xml version="1.0" encoding="UTF-8"?>
<svg id="Layer_1" data-name="Layer 1" xmlns="http://www.w3.org/2000/svg" version="1.1" viewBox="0 0 800 800">
  <defs>
    <style>
      .cls-1 {
        fill: none;
        stroke: #cc6d17;
        stroke-linecap: round;
        stroke-linejoin: round;
        stroke-width: 50px;
      }
    </style>
  </defs>
  <path class="cls-1" d="M400,100c-165.7,0-300,134.3-300,300s134.3,300,300,300,300-134.3,300-300-38.6-168.7-100-223.6M266.7,533.3l266.7-266.7M566.7,500c0,36.8-29.8,66.7-66.7,66.7s-66.7-29.8-66.7-66.7,29.8-66.7,66.7-66.7,66.7,29.8,66.7,66.7ZM366.7,300c0,36.8-29.8,66.7-66.7,66.7s-66.7-29.8-66.7-66.7,29.8-66.7,66.7-66.7,66.7,29.8,66.7,66.7Z"/>
</svg>