<?xml version="1.0" encoding="UTF-8"?>
<svg id="Layer_1" data-name="Layer 1" xmlns="http://www.w3.org/2000/svg" version="1.1" viewBox="0 0 800 800">
  <defs>
    <style>
      .cls-1 {
        fill: #000;
        stroke-width: 0px;
      }
    </style>
  </defs>
  <g id="Shape_Triangle" data-name="Shape / Triangle">
    <g id="Vector">
      <path class="cls-1" d="M640.9,799.2c-34.2,0-69.4-20.3-134.4-57.9l-344.5-199c-70.7-40.8-106.2-61.3-121.4-95.6-13.3-29.8-13.3-64,0-93.8,15.3-34.3,50.8-54.8,121.5-95.6L506.7,58.6C577.4,17.8,612.9-2.7,650.1,1.2c32.5,3.4,62.1,20.5,81.3,46.9,22,30.3,22,71.3,22,153v397.7c-.1,81.7-.1,122.7-22.2,153-19.2,26.4-48.8,43.5-81.3,46.9-3,.3-6,.5-9,.5ZM195.5,315.1c-52.7,30.4-87.5,50.5-94,65-5.6,12.6-5.6,27,0,39.6,6.4,14.4,41.2,34.5,93.8,64.9l344.5,199c52.6,30.4,87.4,50.5,103.1,48.8,13.7-1.4,26.2-8.6,34.3-19.8,9.3-12.8,9.3-53,9.3-113.8V201.2c.1-60.8.1-101-9.2-113.8-8.1-11.1-20.6-18.4-34.3-19.8-15.7-1.7-50.5,18.4-103.2,48.8l-344.5,198.8ZM178.8,286.3h0,0Z"/>
    </g>
  </g>
</svg>