<?xml version="1.0" encoding="UTF-8"?><svg id="a" xmlns="http://www.w3.org/2000/svg" width="957.06" height="256.17" viewBox="0 0 957.06 256.17"><path d="M120.8,176.02H46.24v76.41H0V60.61h128.31v35.7H46.24v44.13h74.56v35.57Z" fill="#cc6d17" stroke-width="0"/><path d="M338.67,149.14l20.68-39.26h46.11l-37.55,69.43,39.39,73.12h-46.37l-22.4-42.16-22,42.16h-46.64l39.52-73.12-37.41-69.43h46.64l20.02,39.26Z" fill="#cc6d17" stroke-width="0"/><path d="M552.62,0v50.52h-38.98v201.91h-65.64V50.52h-38.82V0h143.44Z" fill="#0c2654" stroke-width="0"/><path d="M708.22,118.18v50.67c0,18.61-.94,32.25-2.81,40.93-1.87,8.68-5.87,16.79-12.01,24.32-6.13,7.54-14.01,13.1-23.62,16.68-9.61,3.59-20.66,5.38-33.13,5.38-13.93,0-25.73-1.54-35.39-4.6-9.67-3.06-17.18-7.69-22.53-13.88-5.35-6.18-9.17-13.67-11.46-22.45-2.29-8.78-3.43-21.96-3.43-39.52v-53.01c0-19.23,2.08-34.25,6.24-45.06,4.16-10.81,11.64-19.49,22.45-26.04,10.81-6.55,24.63-9.82,41.47-9.82,14.13,0,26.27,2.1,36.41,6.31,10.14,4.21,17.96,9.69,23.47,16.45,5.51,6.76,9.28,13.72,11.3,20.89,2.03,7.17,3.04,18.09,3.04,32.74ZM645.23,102.59c0-10.6-.57-17.28-1.72-20.03-1.14-2.75-3.59-4.13-7.33-4.13s-6.24,1.38-7.48,4.13c-1.25,2.76-1.87,9.43-1.87,20.03v93.39c0,9.77.62,16.14,1.87,19.1s3.69,4.44,7.33,4.44,6.21-1.35,7.41-4.05c1.19-2.7,1.79-8.52,1.79-17.46v-95.42Z" fill="#0c2654" stroke-width="0"/><path d="M871.46,118.18v50.67c0,18.61-.94,32.25-2.81,40.93-1.87,8.68-5.87,16.79-12.01,24.32-6.13,7.54-14.01,13.1-23.62,16.68-9.61,3.59-20.66,5.38-33.13,5.38-13.93,0-25.73-1.54-35.39-4.6-9.67-3.06-17.18-7.69-22.53-13.88-5.35-6.18-9.17-13.67-11.46-22.45-2.29-8.78-3.43-21.96-3.43-39.52v-53.01c0-19.23,2.08-34.25,6.24-45.06,4.16-10.81,11.64-19.49,22.45-26.04,10.81-6.55,24.63-9.82,41.47-9.82,14.13,0,26.27,2.1,36.41,6.31,10.14,4.21,17.96,9.69,23.47,16.45,5.51,6.76,9.28,13.72,11.3,20.89,2.03,7.17,3.04,18.09,3.04,32.74ZM808.47,102.59c0-10.6-.57-17.28-1.72-20.03-1.14-2.75-3.59-4.13-7.33-4.13s-6.24,1.38-7.48,4.13c-1.25,2.76-1.87,9.43-1.87,20.03v93.39c0,9.77.62,16.14,1.87,19.1s3.69,4.44,7.33,4.44,6.21-1.35,7.41-4.05c1.19-2.7,1.79-8.52,1.79-17.46v-95.42Z" fill="#0c2654" stroke-width="0"/><path d="M957.06,0v252.42h-64.86V0h64.86Z" fill="#0c2654" stroke-width="0"/><path d="M254.69,127.02c0-12.96-4.62-25.53-13.01-35.4-.91-1.07-1.8-1.59-2.73-1.59-1.77,0-2.67,1.51-2.67,4.48v30.61c0,1.04-.85,2.52-1.76,3.04l-32.76,18.92c-.43.25-1.08.39-1.76.39s-1.33-.15-1.76-.39l-32.76-18.92c-.9-.52-1.76-2-1.76-3.04v-31.07c0-3.4-2.06-3.67-2.68-3.67-1.55,0-2.85,1.38-3.33,1.97-7.99,9.74-12.39,22.04-12.39,34.66,0,20.43,11.26,38.27,27.9,47.66,1.52.86,4.68,2.34,4.68,6.73v69.05c0,2.87,2.33,5.2,5.2,5.2h33.82c2.87,0,5.2-2.33,5.2-5.2v-69.05c0-4.39,2.74-5.66,4.06-6.39,16.97-9.29,28.51-27.32,28.51-48Z" fill="#cc6d17" stroke-width="0"/><path d="M225.75,87.49l-22.48-12.98c-.9-.52-2.06-.8-3.27-.8s-2.37.29-3.27.8l-22.48,12.98c-1.86,1.08-3.27,3.51-3.27,5.66v25.79c0,2.15,1.4,4.58,3.27,5.66l22.48,12.98c.9.52,2.06.8,3.27.8s2.37-.29,3.27-.8l22.48-12.98c1.86-1.08,3.27-3.51,3.27-5.66v-25.79c0-2.15-1.4-4.58-3.27-5.66ZM200,118.76c-7.02,0-12.72-5.69-12.72-12.72s5.69-12.72,12.72-12.72,12.72,5.69,12.72,12.72c0,7.02-5.69,12.72-12.72,12.72Z" fill="#0c2654" stroke-width="0"/></svg>